<?xml version="1.0" encoding="utf-8"?>
<!-- Generator: Adobe Illustrator 22.0.1, SVG Export Plug-In . SVG Version: 6.00 Build 0)  -->
<svg version="1.1" id="Layer_1" xmlns="http://www.w3.org/2000/svg" xmlns:xlink="http://www.w3.org/1999/xlink" x="0px" y="0px"
	 viewBox="0 0 127.7 103.7" style="enable-background:new 0 0 127.7 103.7;" xml:space="preserve">
<style type="text/css">
	.st0{fill:#262C6A;}
	.st1{opacity:0.7;}
	.st2{fill:#2A81BA;}
	.st3{fill:#49C2C6;}
	.st4{fill:#FFFFFF;}
	.st5{fill:#88181A;}
</style>
<g>
	<circle class="st0" cx="63.1" cy="34.4" r="30.9"/>
	<g class="st1">
		<path class="st2" d="M62.4,57.6c-3,2.4-6,3.4-9,3.4c-4.4,0-8.7-2.1-12-4.3c5.6,5.5,13.3,9,21.8,9c9.2,0,17.4-4,23.1-10.4
			C82.2,53.3,71.7,49.8,62.4,57.6z"/>
		<path class="st3" d="M62.3,50.2c-3.3,2.5-6.7,3.5-10.1,3.5c-7.1,0-13.8-4.2-17.6-7.2c0.8,2,1.8,3.8,3,5.6c4.4,4.1,14.9,12,24,4.5
			C71.7,48.3,83,52.3,87,54.2c1.5-1.8,2.8-3.9,3.8-6C88,46.2,76.5,39.3,62.3,50.2z"/>
		<path class="st2" d="M62.1,37.9c-3.2,2.8-6.7,4.3-10.4,4.3c-0.6,0-1.2,0-1.8-0.1c-8-1-14.6-8.3-17.2-11.6
			c-0.2,1.4-0.3,2.8-0.3,4.3c0,2.5,0.3,4.9,0.9,7.3l0,0c0.1,0.2,15.9,14.8,27.4,5.9C75.3,36.5,88,42.8,92,45.5
			c1.1-2.9,1.7-6,1.9-9.2C90.6,34.5,74.6,26.9,62.1,37.9z"/>
	</g>
	<path class="st2" d="M50.9,21.8c3.6-2.2,7.3-4.4,10.9-6.6c0,1.6,0,3,0,4.4c0,0.6,0,1.1,0,1.7c0,0.7,0.4,1.1,1.1,1.1
		c0.7,0,1.1-0.5,1.1-1.1c0-1.6,0-3.3,0-4.9c0-0.3,0-0.6,0-1.1c3.7,2.2,7.1,4.4,10.7,6.6c-0.7,1.5-11.9,24.8-12,24.8S51,22,50.9,21.8
		z"/>
	<path class="st2" d="M53.6,18.8c0-1.3,0-2.5,0-3.8c1.7,0,3.3,0,5,0c0-1.2,0-2.2,0-3.4c0.8,0,1.4,0,2.2,0c0-1.8,0-3.5,0-5.3
		c1.5,0,2.8,0,4.3,0c0,1.7,0,3.4,0,5.2c0.8,0,1.4,0,2.2,0c0,1.1,0,2.2,0,3.4c1.5,0,2.8,0,4.2,0c0.7,0,0.9,0.2,0.9,0.9
		c-0.1,0.9,0,1.8,0,2.9c-0.4-0.2-0.7-0.3-0.9-0.5c-2.6-1.6-5.2-3.2-7.8-4.8c-0.5-0.3-0.9-0.4-1.5,0c-2.5,1.6-5.1,3.2-7.7,4.8
		C54.2,18.5,54,18.6,53.6,18.8z"/>
	<g>
		<path class="st4" d="M38.5,53.7l13.6-29.7l10.7,22.3c0.8-2,1.7-3.9,2.6-5.7c0.9-1.8,1.8-3.6,2.7-5.4c0.9-1.8,1.8-3.6,2.7-5.4
			c0.9-1.8,1.7-3.7,2.6-5.8l13.7,30c-0.3,0.7-3.4,3.6-3.4,3.6L73.5,35.2c-0.4,1-0.8,1.8-1.3,2.6c-0.4,0.8-0.9,1.7-1.5,2.8
			c-0.6,1.1-1.3,2.6-2.2,4.3c-0.8,1.8-1.9,4.2-3.2,7.2l-2.6,5.5L60.3,52c-0.4-1.1-0.9-2-1.3-2.9c-0.4-0.9-1-1.9-1.6-3.1
			c-0.6-1.2-1.4-2.6-2.2-4.3c-0.8-1.7-1.9-3.8-3-6.4c-0.5,1.3-1.2,2.8-1.9,4.4c-0.7,1.6-1.5,3.3-2.3,5c-0.8,1.7-1.6,3.5-2.4,5.2
			c-0.8,1.7-1.6,3.4-2.3,5c-0.4,0.8-0.7,1.5-1.1,2.3C42.1,57.3,39.5,55.3,38.5,53.7z"/>
	</g>
	<polygon class="st5" points="73.8,24.6 62.8,47.7 51.8,24.6 50.5,26.9 62.8,52 74.8,27 	"/>
</g>
<g>
	<g>
		<path class="st4" d="M8.5,87.4H7.4L4,72.8v14.6H3V70.9h1.6L8,85.5l3.4-14.5H13v16.4h-1V72.8L8.5,87.4z"/>
		<path class="st4" d="M16.4,83.7l-0.8,3.6h-1l3.6-16.5h1.6l3.7,16.5h-1.1l-0.8-3.6H16.4z M16.6,82.8h4.8L19,72.2L16.6,82.8z"/>
		<path class="st4" d="M32,74.9v0.4h-1v-0.4c0-1.7-0.7-3.1-2.4-3.1c-1.8,0-2.4,1.3-2.4,3c0,4,5.9,4.1,5.9,8.6c0,2.4-1,4.1-3.5,4.1
			c-2.5,0-3.5-1.7-3.5-4.1v-0.8h1v0.9c0,1.8,0.7,3,2.5,3c1.8,0,2.5-1.3,2.5-3c0-3.9-5.9-4-5.9-8.6c0-2.5,1.1-4.1,3.5-4.1
			C31,70.8,32,72.5,32,74.9z"/>
		<path class="st4" d="M36.6,87.4V71.9h-3.3v-1H41v1h-3.4v15.5H36.6z"/>
		<path class="st4" d="M47.9,78.6v1h-4.5v6.9h5.4v1h-6.5V70.9h6.5v1h-5.4v6.6H47.9z"/>
		<path class="st4" d="M54,70.9c2.5,0,3.5,1.4,3.5,3.7v1.4c0,1.9-0.8,3-2.4,3.4c1.7,0.4,2.4,1.6,2.4,3.4v2.6c0,0.7,0,1.4,0.4,2h-1.1
			c-0.3-0.5-0.4-1.1-0.4-2v-2.6c0-2.2-1.2-2.8-3.1-2.8h-1.7v7.4h-1.1V70.9H54z M53.4,79c1.9,0,3.1-0.5,3.1-2.7v-1.6
			c0-1.8-0.7-2.8-2.5-2.8h-2.3V79H53.4z"/>
		<path class="st4" d="M60.5,70.9l3.3,15.2l3.3-15.2h1l-3.6,16.4H63l-3.6-16.4H60.5z"/>
		<path class="st4" d="M70.9,70.9v16.4h-1.1V70.9H70.9z"/>
		<path class="st4" d="M78.4,78.6v1h-4.5v6.9h5.4v1h-6.5V70.9h6.5v1h-5.4v6.6H78.4z"/>
		<path class="st4" d="M85,87.4h-1.5l-2.7-16.4h1.1l2.5,15L86.7,71h1.2l2.3,14.9l2.4-14.9h1l-2.6,16.4h-1.4l-2.2-13.5L85,87.4z"/>
	</g>
	<path class="st4" d="M107.4,75v0.3h-1V75c0-1.7-0.6-3-2.4-3s-2.4,1.3-2.4,3c0,3.9,5.8,4,5.8,8.4c0,2.3-1,4-3.5,4s-3.5-1.7-3.5-4
		v-0.8h1v0.9c0,1.7,0.7,3,2.4,3c1.8,0,2.4-1.2,2.4-3c0-3.9-5.8-3.9-5.8-8.4c0-2.4,1.1-4,3.4-4C106.4,71,107.4,72.7,107.4,75z"/>
	<path class="st4" d="M110,85.4v2h-1v-2H110z"/>
	<path class="st4" d="M123.2,85.4v2h-1v-2H123.2z"/>
	<path class="st4" d="M113.4,83.7l-0.8,3.6h-1l3.5-16.1h1.5l3.6,16.1h-1.1l-0.8-3.6H113.4z M113.5,82.7h4.7l-2.4-10.4L113.5,82.7z"
		/>
</g>
<g>
	<path class="st4" d="M14.6,92H16v6.9h-0.8v-5.7c0-0.3,0-0.6,0-0.9h0c-0.1,0.4-0.1,0.7-0.2,0.9l-1.5,5.7h-0.9l-1.5-5.7
		c-0.1-0.2-0.1-0.5-0.2-0.9h0c0,0.3,0,0.6,0,0.9v5.7h-0.8V92h1.4l1.4,5.4c0.1,0.3,0.1,0.6,0.1,1h0c0-0.4,0.1-0.7,0.2-1L14.6,92z"/>
	<path class="st4" d="M20.5,98.9c-0.1,0-0.1,0-0.2,0c-0.6,0-0.9,0-0.9-0.7h0c-0.2,0.5-0.6,0.8-1.1,0.8c-1,0-1.3-0.6-1.3-1.5
		c0-0.2,0-0.9,0.7-1.2c0.4-0.2,1.5-0.6,1.5-0.6c0.2-0.1,0.1-0.3,0.1-0.6c0-0.6-0.2-0.8-0.8-0.8c-0.7,0-0.8,0.3-0.7,0.9h-0.7
		c0-1.1,0.5-1.5,1.5-1.5c1.5,0,1.4,1.3,1.4,1.4V98c0,0.1,0,0.3,0.1,0.4c0.1,0,0.2,0,0.3,0V98.9z M19.3,96.1
		c-0.4,0.2-0.8,0.4-1.2,0.6c-0.3,0.2-0.5,0.5-0.5,0.9c0,0.5,0.1,0.9,0.7,0.9c0.3,0,0.9-0.2,0.9-1V96.1z"/>
	<path class="st4" d="M22.2,94.6L22.2,94.6c0.3-0.7,0.8-1,1.5-0.9v0.7c-0.9-0.2-1.5,0.4-1.5,1.4v3.1h-0.7v-5.1h0.7V94.6z"/>
	<path class="st4" d="M24.5,92.9V92h0.7v0.9H24.5z M24.5,98.9v-5.1h0.7v5.1H24.5z"/>
	<path class="st4" d="M27.3,94.3L27.3,94.3c0.4-0.4,0.7-0.7,1.3-0.7c0.8,0,1.3,0.4,1.3,1.3v4h-0.7v-3.8c0-0.5-0.2-0.9-0.8-0.9
		c-0.3,0-0.5,0.1-0.7,0.3c-0.3,0.3-0.3,0.6-0.3,0.9v3.4h-0.7v-5.1h0.7V94.3z"/>
	<path class="st4" d="M34.2,97.2c0,1-0.5,1.8-1.6,1.8c-1,0-1.7-0.6-1.7-2.7c0-1.1,0.3-2.7,1.6-2.7c1.7,0,1.6,1.6,1.6,2.8h-2.5
		c0,0.7-0.1,2,0.9,2c0.7,0,0.9-0.6,0.9-1.2H34.2z M33.4,95.8c0-0.6,0-1.6-0.8-1.6c-0.9,0-0.9,0.9-0.9,1.6H33.4z"/>
	<path class="st4" d="M40.7,93.8c0.1-0.7-0.3-1.3-1.1-1.3c-1.1,0-1.2,0.7-1.2,1.2c0,0.5,0.2,0.8,0.7,0.9c0.4,0.1,0.7,0.3,1.1,0.4
		c1.3,0.5,1.6,1,1.6,1.9c0,1.3-0.8,2.1-2.2,2.1c-0.7,0-1.5-0.2-1.9-1.1c-0.1-0.3-0.1-0.9-0.1-1.3h0.8c0,1,0.2,1.7,1.3,1.7
		c0.8,0,1.3-0.4,1.3-1.2c0-1.1-0.4-1.1-1.1-1.3c-0.4-0.1-1-0.3-1.4-0.5c-0.7-0.3-0.8-0.9-0.8-1.6c0-1.1,0.8-1.9,1.9-1.9
		c1.3,0,2,0.7,2,2H40.7z"/>
	<path class="st4" d="M45.3,98.2L45.3,98.2C45,98.8,44.5,99,44,99c-0.8,0-1.2-0.4-1.2-1.3v-4h0.7v4c0,0.4,0.1,0.7,0.7,0.7
		c0.4,0,0.7-0.2,0.9-0.5c0.2-0.3,0.2-0.6,0.2-0.9v-3.3H46v5.1h-0.7V98.2z"/>
	<path class="st4" d="M48.2,94.6L48.2,94.6c0.3-0.7,0.8-1,1.5-0.9v0.7c-0.9-0.2-1.5,0.4-1.5,1.4v3.1h-0.7v-5.1h0.7V94.6z"/>
	<path class="st4" d="M50.1,93.8h0.8l1.2,4.5h0l1.2-4.5h0.8l-1.5,5.1h-0.8L50.1,93.8z"/>
	<path class="st4" d="M57.7,97.2c0,1-0.5,1.8-1.6,1.8c-1,0-1.7-0.6-1.7-2.7c0-1.1,0.3-2.7,1.6-2.7c1.7,0,1.6,1.6,1.6,2.8h-2.5
		c0,0.7-0.1,2,0.9,2c0.7,0,0.9-0.6,0.9-1.2H57.7z M56.9,95.8c0-0.6,0-1.6-0.8-1.6s-0.9,0.9-0.9,1.6H56.9z"/>
	<path class="st4" d="M58.2,93.8H59l1.2,4.5h0l1.2-4.5h0.8l-1.5,4.9c-0.1,0.3-0.3,1.1-0.5,1.3c-0.3,0.5-0.6,0.7-1.2,0.7
		c-0.2,0-0.4,0-0.5-0.1v-0.6c0.2,0.1,0.4,0.1,0.5,0.1c0.7,0,0.7-0.5,0.9-1L58.2,93.8z"/>
	<path class="st4" d="M64.6,99c-1.1,0-1.8-0.7-1.8-2.9c0-1.6,0.6-2.5,1.8-2.5c1.3,0,1.8,1,1.8,2.5C66.4,98.4,65.7,99,64.6,99z
		 M64.6,94.2c-0.7,0-1.1,0.6-1.1,2.1c0,1.2,0.2,2,1.1,2c0.9,0,1.1-0.8,1.1-2C65.7,94.8,65.3,94.2,64.6,94.2z"/>
	<path class="st4" d="M68.3,94.6L68.3,94.6c0.3-0.7,0.8-1,1.5-0.9v0.7c-0.9-0.2-1.5,0.4-1.5,1.4v3.1h-0.7v-5.1h0.7V94.6z"/>
	<path class="st4" d="M72.8,95.1c0-0.6-0.2-0.9-0.8-0.9c-0.5,0-0.8,0.2-0.8,0.8c0,0.7,0.5,0.7,1,1c0.7,0.3,1.5,0.5,1.5,1.5
		c0,1-0.7,1.6-1.7,1.6c-0.5,0-1-0.1-1.3-0.5c-0.3-0.4-0.3-0.7-0.3-1.1H71c0,0.6,0.2,1,0.9,1c0.6,0,1-0.2,1-0.9c0-0.7-0.7-0.8-1.3-1
		c-0.8-0.3-1.3-0.6-1.3-1.5c0-0.9,0.6-1.5,1.5-1.5c1,0,1.6,0.5,1.6,1.5H72.8z"/>
	<path class="st4" d="M80.7,97c0.1-0.4,0.2-0.9,0.3-1.3h0.7c0,0.7-0.2,1.3-0.5,1.9l0.9,1.3h-0.9l-0.4-0.6c-0.4,0.5-1,0.8-1.6,0.8
		c-1.2,0-2-0.8-2-2c0-1.1,0.6-1.6,1.4-2.1c-0.4-0.5-0.7-0.9-0.7-1.6c0-0.8,0.5-1.4,1.3-1.4c0.8,0,1.5,0.5,1.5,1.4
		c0,0.7-0.6,1.3-1.2,1.7L80.7,97z M78.8,95.5c-0.6,0.4-1,0.8-1,1.6c0,0.8,0.5,1.3,1.3,1.3c0.5,0,0.9-0.3,1.1-0.6L78.8,95.5z
		 M79.8,93.3c0-0.4-0.2-0.8-0.7-0.8c-0.4,0-0.6,0.4-0.6,0.7c0,0.5,0.3,0.9,0.5,1.2C79.5,94.3,79.8,93.9,79.8,93.3z"/>
	<path class="st4" d="M86.9,92h1l2,6.9H89l-0.5-2h-2.2l-0.5,2h-0.9L86.9,92z M87.4,92.5L87.4,92.5l-0.9,3.7h1.8L87.4,92.5z"/>
	<path class="st4" d="M93.2,92h0.7v6.9h-0.7v-0.7h0c-0.3,0.6-0.6,0.8-1.2,0.8c-1.6,0-1.5-2.3-1.5-2.7c-0.1-1.5,0.4-2.7,1.5-2.7
		c0.5,0,0.8,0.2,1.2,0.7h0V92z M93.2,96.2c0-0.7,0-2-1-2c-0.6,0-1,0.5-1,2.1c0,1.1,0,2.1,1,2.1c0.8,0,1-1,1-1.5V96.2z"/>
	<path class="st4" d="M94.7,93.8h0.8l1.2,4.5h0l1.2-4.5h0.8L97,98.9h-0.8L94.7,93.8z"/>
	<path class="st4" d="M99.4,92.9V92h0.7v0.9H99.4z M99.4,98.9v-5.1h0.7v5.1H99.4z"/>
	<path class="st4" d="M103.6,95.1c0-0.6-0.2-0.9-0.8-0.9c-0.5,0-0.8,0.2-0.8,0.8c0,0.7,0.5,0.7,1,1c0.7,0.3,1.5,0.5,1.5,1.5
		c0,1-0.7,1.6-1.7,1.6c-0.5,0-1-0.1-1.3-0.5c-0.3-0.4-0.3-0.7-0.3-1.1h0.7c0,0.6,0.2,1,0.9,1c0.6,0,1-0.2,1-0.9c0-0.7-0.7-0.8-1.3-1
		c-0.8-0.3-1.3-0.6-1.3-1.5c0-0.9,0.6-1.5,1.5-1.5c1,0,1.6,0.5,1.6,1.5H103.6z"/>
	<path class="st4" d="M107.2,99c-1.1,0-1.8-0.7-1.8-2.9c0-1.6,0.6-2.5,1.8-2.5c1.3,0,1.8,1,1.8,2.5C109,98.4,108.3,99,107.2,99z
		 M107.2,94.2c-0.7,0-1.1,0.6-1.1,2.1c0,1.2,0.2,2,1.1,2c0.9,0,1.1-0.8,1.1-2C108.3,94.8,107.9,94.2,107.2,94.2z"/>
	<path class="st4" d="M110.9,94.6L110.9,94.6c0.3-0.7,0.8-1,1.5-0.9v0.7c-0.9-0.2-1.5,0.4-1.5,1.4v3.1h-0.7v-5.1h0.7V94.6z"/>
	<path class="st4" d="M115.4,95.1c0-0.6-0.2-0.9-0.8-0.9c-0.5,0-0.8,0.2-0.8,0.8c0,0.7,0.5,0.7,1,1c0.7,0.3,1.5,0.5,1.5,1.5
		c0,1-0.7,1.6-1.7,1.6c-0.5,0-1-0.1-1.3-0.5c-0.3-0.4-0.3-0.7-0.3-1.1h0.7c0,0.6,0.2,1,0.9,1c0.6,0,1-0.2,1-0.9c0-0.7-0.7-0.8-1.3-1
		c-0.8-0.3-1.3-0.6-1.3-1.5c0-0.9,0.6-1.5,1.5-1.5c1,0,1.6,0.5,1.6,1.5H115.4z"/>
</g>
</svg>
